<svg width="2000" height="1500" viewBox="0 0 2000 1500" fill="none" xmlns="http://www.w3.org/2000/svg">
<path d="M397.599 902.5C395.599 901.4 392.499 901.1 390.099 902L237.099 958.7C236.699 958.8 236.399 959 236.099 959.2C234.199 960.3 233.799 962.1 235.299 963.5L388.899 1102.2C389.099 1102.4 389.399 1102.6 389.699 1102.8C391.699 1103.9 394.799 1104.2 397.199 1103.3L550.199 1046.6C550.599 1046.5 550.899 1046.3 551.199 1046.1C553.099 1045 553.499 1043.2 551.999 1041.8L398.399 903.1C398.199 902.9 397.899 902.7 397.599 902.5Z" fill="white"/>
<path d="M388.9 1102.2L235.3 963.5C233.8 962.1 234.1 960.3 236.1 959.2C236.4 959 236.7 958.9 237.1 958.7L390.1 902C392.5 901.1 395.6 901.3 397.6 902.5C397.9 902.7 398.2 902.9 398.4 903.1L552 1041.8C553.5 1043.2 553.2 1045 551.2 1046.1C550.9 1046.3 550.6 1046.4 550.2 1046.6L397.2 1103.3C394.8 1104.2 391.7 1104 389.7 1102.8C389.4 1102.7 389.2 1102.5 388.9 1102.2ZM399 901.7C396.4 900.2 392.3 899.9 389 901.1L236 957.8C235.5 958 235 958.2 234.6 958.4C232 959.9 231.5 962.3 233.6 964.2L387.2 1102.9C387.5 1103.2 387.9 1103.5 388.3 1103.7C390.9 1105.2 395 1105.5 398.3 1104.3L551.3 1047.6C551.8 1047.4 552.3 1047.2 552.7 1047C555.3 1045.5 555.8 1043.1 553.7 1041.2L400.1 902.5C399.8 902.2 399.4 901.9 399 901.7Z" fill="#636363"/>
<path d="M218.1 966.3C217.8 966.1 217.3 966.1 216.8 966.2L207.2 969.8L207 969.9C206.7 970.1 206.6 970.4 206.9 970.6L293.5 1048.8L293.6 1048.9C293.9 1049.1 294.4 1049.1 294.8 1049L304.4 1045.4L304.6 1045.3C304.9 1045.1 305 1044.8 304.7 1044.6L218.1 966.4V966.3Z" fill="#636363"/>
<path d="M219.5 965.5C218.5 964.9 217 964.8 215.8 965.3L206.2 968.9C206 969 205.8 969 205.7 969.1C204.7 969.7 204.5 970.6 205.3 971.3L291.9 1049.5L292.7 1049.2L293.5 1048.9L207 970.6C206.7 970.4 206.8 970.1 207.1 969.9L207.3 969.8L216.9 966.2C217.3 966.1 217.8 966.1 218.2 966.3L218.3 966.4L304.9 1044.6C305.2 1044.8 305.1 1045.1 304.8 1045.3L304.6 1045.4L295 1049C294.6 1049.2 294.1 1049.1 293.8 1048.9L293.7 1048.8L292.9 1049.1L292.1 1049.4C292.2 1049.5 292.4 1049.6 292.5 1049.7C293.5 1050.3 295 1050.4 296.2 1049.9L305.8 1046.3C306 1046.2 306.2 1046.1 306.3 1046.1C307.3 1045.5 307.5 1044.6 306.7 1043.9L220 965.8C219.8 965.7 219.7 965.6 219.5 965.5Z" fill="#636363"/>
<path d="M199.799 973.1C199.499 972.9 198.899 972.9 198.599 973L188.999 976.6L188.799 976.7C188.499 976.9 188.399 977.2 188.699 977.4L244.499 1027.8L244.599 1027.9C244.899 1028.1 245.399 1028.1 245.799 1028L255.399 1024.4L255.599 1024.3C255.899 1024.1 255.999 1023.8 255.699 1023.6L199.899 973.2L199.799 973.1Z" fill="white"/>
<path d="M244.399 1027.8L188.6 977.4C188.3 977.2 188.399 976.9 188.699 976.7L188.899 976.6L198.499 973C198.899 972.9 199.399 972.9 199.699 973.1L199.8 973.2L255.6 1023.6C255.9 1023.8 255.799 1024.1 255.499 1024.3L255.299 1024.4L245.699 1028C245.299 1028.1 244.799 1028.1 244.499 1027.9L244.399 1027.8ZM201.199 972.3C200.199 971.7 198.699 971.6 197.499 972.1L187.899 975.7C187.699 975.8 187.499 975.8 187.399 975.9C186.399 976.5 186.199 977.4 186.999 978.1L242.799 1028.5C242.899 1028.6 243.099 1028.7 243.199 1028.8C244.199 1029.4 245.699 1029.5 246.899 1029L256.499 1025.4C256.699 1025.3 256.899 1025.3 256.999 1025.2C257.999 1024.6 258.199 1023.7 257.399 1023L201.6 972.6C201.5 972.5 201.299 972.4 201.199 972.3Z" fill="#636363"/>
<path d="M359.899 1094.4C358.899 1093.8 357.399 1093.7 356.199 1094.2L331.599 1103.3C331.399 1103.4 331.199 1103.5 331.099 1103.5C330.099 1104.1 329.899 1105 330.699 1105.7L346.499 1120C346.599 1120.1 346.799 1120.2 346.899 1120.3C347.899 1120.9 349.399 1121 350.599 1120.5L375.199 1111.4C375.399 1111.3 375.599 1111.2 375.699 1111.2C376.699 1110.6 376.899 1109.7 376.099 1109L360.299 1094.7C360.199 1094.6 360.099 1094.5 359.899 1094.4Z" fill="#636363"/>
<path d="M361.299 1093.6C359.699 1092.7 357.099 1092.5 355.099 1093.2L330.499 1102.3C330.199 1102.4 329.899 1102.5 329.599 1102.7C327.999 1103.6 327.699 1105.1 328.899 1106.3L344.699 1120.6C344.899 1120.8 345.099 1120.9 345.399 1121.1C346.999 1122 349.599 1122.2 351.599 1121.5L376.199 1112.4C376.499 1112.3 376.799 1112.1 376.999 1112C378.599 1111.1 378.999 1109.6 377.699 1108.4L376.899 1108.7L376.099 1109C376.899 1109.7 376.699 1110.6 375.699 1111.2C375.599 1111.3 375.399 1111.4 375.199 1111.4L350.599 1120.5C349.399 1120.9 347.799 1120.8 346.899 1120.3C346.699 1120.2 346.599 1120.1 346.499 1120L330.699 1105.7C329.899 1105 330.099 1104.1 331.099 1103.5C331.199 1103.4 331.399 1103.3 331.599 1103.3L356.199 1094.2C357.399 1093.8 358.999 1093.9 359.899 1094.4C360.099 1094.5 360.199 1094.6 360.299 1094.7L376.099 1109L376.899 1108.7L377.699 1108.4L361.899 1094.1C361.799 1093.9 361.599 1093.8 361.299 1093.6Z" fill="#636363"/>
<path d="M1159.3 739C1156.9 737.6 1153.2 737.6 1150.8 739L1021.6 812.9C1019.3 814.2 1019.3 816.4 1021.6 817.8L1221.5 935.1C1223.8 936.4 1227.6 936.5 1229.9 935.1L1359.1 861.2C1361.4 859.9 1361.4 857.7 1359.1 856.3L1159.3 739Z" fill="#636363"/>
<path d="M1159.3 739L1359.2 856.3C1361.5 857.7 1361.5 859.8 1359.2 861.2L1230 935.1C1227.7 936.4 1223.9 936.4 1221.6 935.1L1021.7 817.8C1019.4 816.4 1019.4 814.3 1021.7 812.9L1150.9 739C1153.1 737.6 1156.9 737.6 1159.3 739ZM1160.7 738.2C1157.5 736.3 1152.5 736.3 1149.3 738.1L1020.1 812H1020C1016.9 813.8 1016.9 816.7 1020 818.5L1219.9 935.8C1223 937.6 1228 937.6 1231.2 935.8L1360.4 861.9C1363.5 860.1 1363.5 857.2 1360.4 855.4L1160.7 738.2Z" fill="#636363"/>
<path d="M1005.9 822.6C1005.5 822.4 1004.9 822.4 1004.5 822.6L996.4 827.2C996 827.4 996 827.8 996.4 828L1109.1 894.1C1109.5 894.3 1110.1 894.3 1110.5 894.1L1118.6 889.5C1119 889.3 1119 888.9 1118.6 888.7L1005.9 822.6Z" fill="white"/>
<path d="M1109 894.2L996.3 828.1C995.9 827.9 995.9 827.5 996.3 827.3L1004.4 822.7C1004.8 822.5 1005.4 822.5 1005.8 822.7L1118.5 888.8C1118.9 889 1118.9 889.4 1118.5 889.6L1110.4 894.2C1110.1 894.5 1109.4 894.5 1109 894.2ZM1007.3 821.9C1006.1 821.2 1004.2 821.2 1003.1 821.9L995 826.5C993.8 827.2 993.8 828.3 995 829L1107.7 895.1H1107.8C1107.8 895.1 1107.8 895.1 1107.9 895.1C1109.1 895.7 1110.9 895.7 1112 895.1L1120.1 890.5C1121.2 889.8 1121.2 888.7 1120.1 888.1L1007.3 821.9Z" fill="#636363"/>
<path d="M990.4 831.5C990 831.3 989.4 831.3 989 831.5L980.9 836.1C980.5 836.3 980.5 836.7 980.9 836.9L1053.5 879.5C1053.9 879.7 1054.5 879.7 1054.9 879.5L1063 874.9C1063.4 874.7 1063.4 874.3 1063 874.1L990.4 831.5Z" fill="#636363"/>
<path d="M990.4 831.5L1063 874.1C1063.4 874.3 1063.4 874.7 1063 874.9L1054.9 879.5C1054.5 879.7 1053.9 879.7 1053.5 879.5L980.9 837C980.5 836.8 980.5 836.4 980.9 836.2L989 831.6C989.4 831.3 990 831.3 990.4 831.5ZM991.8 830.7C990.6 830 988.7 830 987.6 830.7L979.5 835.3C978.3 836 978.3 837.1 979.5 837.8L1052.1 880.4C1053.3 881.1 1055.1 881.1 1056.3 880.4L1064.4 875.8C1065.6 875.1 1065.6 874 1064.4 873.3L991.8 830.7Z" fill="#636363"/>
<path d="M1211.5 943.2L1190.9 931.1C1189.7 930.4 1187.8 930.4 1186.7 931.1L1165.9 943C1164.7 943.7 1164.7 944.8 1165.9 945.4L1186.5 957.5C1187.7 958.2 1189.6 958.2 1190.7 957.5L1211.5 945.6C1212.7 944.9 1212.7 943.8 1211.5 943.2Z" fill="white"/>
<path d="M1211.5 943.2C1212.7 943.9 1212.7 945 1211.5 945.6L1190.7 957.5C1189.5 958.2 1187.6 958.2 1186.5 957.5L1165.9 945.4C1164.7 944.7 1164.7 943.6 1165.9 943L1186.7 931.1C1187.9 930.4 1189.8 930.4 1190.9 931.1L1211.5 943.2ZM1192.3 930.4C1190.3 929.2 1187.2 929.2 1185.2 930.4L1164.4 942.3C1162.5 943.4 1162.5 945.2 1164.4 946.4L1185 958.5C1186.9 959.6 1190.1 959.6 1192 958.5L1212.8 946.6C1214.7 945.5 1214.7 943.7 1212.8 942.5L1192.3 930.4Z" fill="#636363"/>
<path d="M1691.5 732.5C1691.3 732.4 1691.2 732.3 1691 732.2L1468.6 629.4C1466.2 628.3 1462.7 628.4 1460.6 629.7C1460.4 629.8 1460.3 629.9 1460.2 630L1347 712.2C1345.1 713.6 1345.3 715.6 1347.5 716.8C1347.7 716.9 1347.8 717 1348 717.1L1570.4 819.9C1572.8 821 1576.3 820.9 1578.4 819.6C1578.6 819.5 1578.7 819.4 1578.8 819.3L1692 737C1693.8 735.7 1693.6 733.7 1691.5 732.5Z" fill="white"/>
<path d="M1347.5 716.8C1345.4 715.6 1345.1 713.6 1347 712.2L1460.2 629.9C1460.3 629.8 1460.5 629.7 1460.6 629.6C1462.7 628.4 1466.2 628.2 1468.6 629.3L1691 732.2C1691.2 732.3 1691.3 732.4 1691.5 732.5C1693.6 733.7 1693.9 735.7 1692 737.1L1578.8 819.4C1578.7 819.5 1578.5 819.6 1578.4 819.7C1576.3 820.9 1572.8 821.1 1570.4 820L1348 717.1C1347.8 717 1347.6 716.9 1347.5 716.8ZM1692.9 731.6C1692.7 731.5 1692.5 731.4 1692.2 731.3L1469.8 628.5C1466.6 627 1462 627.2 1459.1 628.8C1458.9 628.9 1458.7 629 1458.5 629.2L1345.3 711.5C1342.7 713.4 1343.1 716 1345.9 717.7C1345.9 717.7 1346 717.7 1346 717.8C1346.2 717.9 1346.4 718 1346.6 718.1L1569 820.9C1572.2 822.4 1576.8 822.2 1579.7 820.6C1579.9 820.5 1580.1 820.4 1580.3 820.2L1693.5 737.9C1696.1 735.9 1695.7 733.3 1692.9 731.6Z" fill="#636363"/>
<path d="M1458.8 781L1333.4 723C1333 722.8 1332.4 722.8 1332.1 723H1332L1324.9 728.2C1324.6 728.4 1324.6 728.8 1325 729H1325.1L1450.4 786.9C1450.8 787.1 1451.4 787.1 1451.7 786.9H1451.8L1458.9 781.7C1459.2 781.5 1459.2 781.2 1458.8 781Z" fill="#636363"/>
<path d="M1325 729C1324.6 728.8 1324.6 728.5 1324.9 728.2L1332 723H1332.1C1332.5 722.8 1333 722.8 1333.4 723L1458.7 780.9H1458.8C1459.2 781.1 1459.2 781.4 1458.9 781.7L1451.8 786.9H1451.7C1451.4 787.1 1450.8 787.1 1450.4 786.9L1325 729ZM1460.2 780.2C1460.1 780.2 1460 780.1 1460 780.1L1334.7 722.2C1333.5 721.6 1331.8 721.7 1330.7 722.3C1330.6 722.3 1330.5 722.4 1330.5 722.4L1323.4 727.6C1322.4 728.3 1322.6 729.3 1323.6 729.9C1323.7 729.9 1323.8 730 1323.8 730L1449.1 787.9C1450.3 788.5 1452 788.4 1453.1 787.8C1453.2 787.8 1453.2 787.7 1453.3 787.7L1460.4 782.5C1461.4 781.8 1461.3 780.8 1460.2 780.2Z" fill="#636363"/>
<path d="M1400.7 770.2L1319.9 732.8C1319.5 732.6 1318.9 732.6 1318.6 732.8L1318.5 732.9L1311.4 738.1C1311.1 738.3 1311.1 738.7 1311.5 738.9H1311.6L1392.4 776.2C1392.8 776.4 1393.4 776.4 1393.7 776.2H1393.8L1400.9 771C1401.1 770.8 1401 770.4 1400.7 770.2Z" fill="white"/>
<path d="M1311.4 738.9C1311 738.7 1311 738.4 1311.3 738.1L1318.4 732.9L1318.5 732.8C1318.9 732.6 1319.4 732.6 1319.8 732.8L1400.6 770.1H1400.7C1401.1 770.3 1401.1 770.6 1400.8 770.9L1393.7 776.1H1393.6C1393.3 776.3 1392.7 776.3 1392.3 776.1L1311.4 738.9ZM1402 769.4C1401.9 769.4 1401.9 769.3 1401.8 769.3L1321 732C1319.8 731.4 1318.1 731.5 1317 732.1C1316.9 732.1 1316.8 732.2 1316.8 732.2L1309.7 737.4C1308.7 738.1 1308.9 739.1 1309.9 739.7C1310 739.7 1310.1 739.8 1310.1 739.8L1390.9 777.1C1392.1 777.7 1393.8 777.6 1394.9 777C1395 777 1395 776.9 1395.1 776.9L1402.2 771.7C1403.3 771 1403.2 770 1402 769.4Z" fill="#636363"/>
<path d="M1562.3 828.8C1562.2 828.8 1562.1 828.7 1562.1 828.7L1539.2 818.1C1538 817.5 1536.3 817.6 1535.2 818.2C1535.1 818.2 1535 818.3 1535 818.3L1516.8 831.5C1515.8 832.2 1516 833.2 1517 833.8C1517.1 833.8 1517.2 833.9 1517.3 833.9L1540.2 844.5C1541.4 845.1 1543.1 845 1544.2 844.4C1544.3 844.4 1544.3 844.3 1544.4 844.3L1562.6 831.1C1563.5 830.4 1563.4 829.4 1562.3 828.8Z" fill="#636363"/>
<path d="M1562.1 828.7C1562.2 828.7 1562.3 828.8 1562.3 828.8C1563.4 829.4 1563.5 830.4 1562.5 831.1L1544.3 844.3C1544.2 844.4 1544.2 844.4 1544.1 844.4C1543 845 1541.3 845.1 1540.1 844.5L1517.2 833.9C1517.1 833.9 1517 833.8 1516.9 833.8C1515.8 833.2 1515.7 832.2 1516.7 831.5L1534.9 818.3C1535 818.3 1535 818.2 1535.1 818.2C1536.2 817.6 1537.9 817.5 1539.1 818.1L1562.1 828.7ZM1563.7 828C1563.6 827.9 1563.4 827.9 1563.3 827.8L1540.4 817.2C1538.4 816.3 1535.5 816.4 1533.7 817.4C1533.6 817.5 1533.4 817.6 1533.3 817.6L1515.1 830.8C1513.5 832 1513.7 833.6 1515.5 834.7C1515.6 834.8 1515.8 834.8 1515.9 834.9L1538.8 845.5C1540.8 846.4 1543.7 846.3 1545.5 845.3C1545.6 845.2 1545.8 845.1 1545.9 845.1L1564.1 831.9C1565.7 830.7 1565.5 829 1563.7 828Z" fill="#636363"/>
<path d="M832.799 581C832.599 580.9 832.499 580.8 832.299 580.7L609.899 478C607.499 476.9 603.999 477 601.899 478.3C601.699 478.4 601.599 478.5 601.499 478.6L488.299 560.9C486.399 562.3 486.599 564.3 488.799 565.5C488.999 565.6 489.099 565.7 489.299 565.8L711.699 668.6C714.099 669.7 717.599 669.6 719.699 668.3C719.899 668.2 719.999 668.1 720.099 668L833.299 585.7C835.199 584.3 834.899 582.3 832.799 581Z" fill="white"/>
<path d="M488.799 565.4C486.699 564.2 486.399 562.2 488.299 560.8L601.499 478.5C601.599 478.4 601.799 478.3 601.899 478.2C603.999 477 607.499 476.8 609.899 477.9L832.299 580.7C832.499 580.8 832.599 580.9 832.799 581C834.899 582.2 835.199 584.2 833.299 585.6L720.099 667.9C719.999 668 719.799 668.1 719.699 668.2C717.599 669.4 714.099 669.6 711.699 668.5L489.299 565.7C489.099 565.6 488.899 565.5 488.799 565.4ZM834.199 580.2C833.999 580.1 833.799 580 833.499 579.9L611.199 477.1C607.999 475.6 603.399 475.8 600.499 477.4C600.299 477.5 600.099 477.6 599.899 477.8L486.699 560C484.099 561.9 484.499 564.5 487.299 566.2C487.299 566.2 487.399 566.2 487.399 566.3C487.599 566.4 487.799 566.5 487.999 566.6L710.399 669.4C713.599 670.9 718.199 670.7 721.099 669.1C721.299 669 721.499 668.9 721.699 668.7L834.899 586.4C837.399 584.5 837.099 581.9 834.199 580.2Z" fill="#636363"/>
<path d="M600.2 629.6L474.8 571.6C474.4 571.4 473.8 571.4 473.5 571.6H473.4L466.3 576.8C466 577 466 577.4 466.4 577.6H466.5L591.8 635.5C592.2 635.7 592.8 635.7 593.1 635.5H593.2L600.3 630.3C600.6 630.1 600.5 629.8 600.2 629.6Z" fill="#636363"/>
<path d="M466.298 577.6C465.898 577.4 465.898 577.1 466.198 576.8L473.298 571.6H473.398C473.798 571.4 474.298 571.4 474.698 571.6L599.998 629.5H600.098C600.498 629.7 600.498 630 600.198 630.3L593.098 635.5H592.998C592.698 635.7 592.098 635.7 591.698 635.5L466.298 577.6ZM601.598 628.7C601.498 628.7 601.398 628.6 601.398 628.6L475.998 570.7C474.798 570.1 473.098 570.2 471.998 570.8C471.898 570.8 471.798 570.9 471.798 570.9L464.698 576.1C463.698 576.8 463.898 577.8 464.898 578.4C464.998 578.4 465.098 578.5 465.098 578.5L590.398 636.4C591.598 637 593.298 636.9 594.398 636.3C594.498 636.3 594.498 636.2 594.598 636.2L601.698 631C602.798 630.4 602.598 629.4 601.598 628.7Z" fill="#636363"/>
<path d="M542 618.8L461.2 581.4C460.8 581.2 460.2 581.2 459.9 581.4L459.8 581.5L452.7 586.7C452.4 586.9 452.4 587.3 452.8 587.5H452.9L533.7 624.8C534.1 625 534.7 625 535 624.8H535.1L542.2 619.6C542.4 619.4 542.4 619 542 618.8Z" fill="white"/>
<path d="M452.699 587.5C452.299 587.3 452.299 587 452.599 586.7L459.699 581.5L459.799 581.4C460.199 581.2 460.699 581.2 461.099 581.4L541.899 618.7H541.999C542.399 618.9 542.399 619.2 542.099 619.5L534.999 624.7H534.899C534.599 624.9 533.999 624.9 533.599 624.7L452.699 587.5ZM543.299 618C543.199 618 543.199 617.9 543.099 617.9L462.299 580.6C461.099 580 459.399 580.1 458.299 580.7C458.199 580.7 458.099 580.8 458.099 580.8L450.999 586C449.999 586.7 450.199 587.7 451.199 588.3C451.299 588.3 451.399 588.4 451.399 588.4L532.199 625.7C533.399 626.3 535.099 626.2 536.199 625.6C536.299 625.6 536.299 625.5 536.399 625.5L543.499 620.3C544.599 619.6 544.499 618.6 543.299 618C543.399 618 543.399 618 543.299 618Z" fill="#636363"/>
<path d="M703.599 677.4C703.499 677.4 703.399 677.3 703.399 677.3L680.499 666.7C679.299 666.1 677.599 666.2 676.499 666.8C676.399 666.8 676.299 666.9 676.299 666.9L657.999 680.2C656.999 680.9 657.199 681.9 658.199 682.5C658.299 682.5 658.399 682.6 658.499 682.6L681.399 693.2C682.599 693.8 684.299 693.7 685.399 693.1C685.499 693.1 685.499 693 685.599 693L703.799 679.8C704.799 679 704.699 678 703.599 677.4Z" fill="#636363"/>
<path d="M703.399 677.3C703.499 677.3 703.599 677.4 703.599 677.4C704.699 678 704.799 679 703.799 679.7L685.599 692.9C685.499 693 685.499 693 685.399 693C684.299 693.6 682.599 693.7 681.399 693.1L658.499 682.5C658.399 682.5 658.299 682.4 658.199 682.4C657.099 681.8 656.999 680.8 657.999 680.1L676.199 666.9C676.299 666.9 676.299 666.8 676.399 666.8C677.499 666.2 679.199 666.1 680.399 666.7L703.399 677.3ZM704.999 676.6C704.899 676.5 704.699 676.5 704.599 676.4L681.699 665.8C679.699 664.9 676.799 665 674.999 666C674.899 666.1 674.699 666.2 674.599 666.2L656.399 679.4C654.799 680.6 654.999 682.2 656.799 683.3C656.899 683.4 657.099 683.4 657.199 683.5L680.099 694.1C682.099 695 684.999 694.9 686.799 693.9C686.899 693.8 687.099 693.7 687.199 693.7L705.399 680.5C706.999 679.3 706.799 677.6 704.999 676.6Z" fill="#636363"/>
<path d="M1240.9 988.6C1239 987.5 1235.9 987.2 1233.4 988.1L1080.4 1044.8C1080 1044.9 1079.7 1045.1 1079.4 1045.3C1077.5 1046.4 1077.1 1048.2 1078.6 1049.6L1232.2 1188.3C1232.4 1188.5 1232.7 1188.7 1233 1188.9C1235 1190 1238.1 1190.3 1240.5 1189.4L1393.5 1132.7C1393.9 1132.6 1394.2 1132.4 1394.5 1132.2C1396.4 1131.1 1396.8 1129.3 1395.3 1127.9L1241.7 989.2C1241.5 989 1241.2 988.8 1240.9 988.6Z" fill="#636363"/>
<path d="M1242.3 987.8C1239.7 986.3 1235.6 986 1232.3 987.2L1079.3 1043.9C1078.8 1044.1 1078.3 1044.3 1077.9 1044.5C1075.3 1046 1074.8 1048.4 1076.9 1050.3L1230.5 1189L1231.3 1188.7L1232.1 1188.4L1078.5 1049.7C1077 1048.3 1077.3 1046.5 1079.3 1045.4C1079.6 1045.2 1079.9 1045.1 1080.3 1044.9L1233.3 988.2C1235.7 987.3 1238.8 987.5 1240.8 988.7C1241.1 988.9 1241.4 989.1 1241.6 989.3L1395.2 1128C1396.7 1129.4 1396.4 1131.2 1394.4 1132.3C1394.1 1132.5 1393.8 1132.6 1393.4 1132.8L1240.4 1189.5C1238 1190.4 1234.9 1190.2 1232.9 1189C1232.6 1188.8 1232.3 1188.6 1232.1 1188.4L1231.3 1188.7L1230.5 1189C1230.8 1189.3 1231.1 1189.5 1231.5 1189.7H1231.6C1234.2 1191.2 1238.3 1191.5 1241.6 1190.3L1394.6 1133.6C1395.1 1133.4 1395.6 1133.2 1396 1133C1398.6 1131.5 1399.1 1129.1 1397 1127.2L1243.4 988.5C1243.1 988.3 1242.7 988 1242.3 987.8Z" fill="#636363"/>
<path d="M1061.4 1052.4C1061.1 1052.2 1060.6 1052.2 1060.2 1052.3L1050.6 1055.9L1050.4 1056C1050.1 1056.2 1050 1056.5 1050.3 1056.7L1136.9 1134.9L1137 1135C1137.3 1135.2 1137.8 1135.2 1138.2 1135.1L1147.8 1131.5L1148 1131.4C1148.3 1131.2 1148.4 1130.9 1148.1 1130.7L1061.5 1052.5L1061.4 1052.4Z" fill="white"/>
<path d="M1062.8 1051.6C1061.8 1051 1060.3 1050.9 1059.1 1051.4L1049.5 1055C1049.3 1055.1 1049.1 1055.2 1049 1055.2C1048 1055.8 1047.8 1056.7 1048.6 1057.4L1135.2 1135.6L1136 1135.3L1136.8 1135L1050.2 1056.8C1049.9 1056.6 1050 1056.3 1050.3 1056.1L1050.5 1056L1060.1 1052.4C1060.5 1052.2 1061 1052.3 1061.3 1052.5L1061.4 1052.6L1148 1130.8C1148.3 1131 1148.2 1131.3 1147.9 1131.5L1147.7 1131.6L1138.1 1135.2C1137.7 1135.3 1137.2 1135.3 1136.9 1135.1L1136.8 1135L1136 1135.3L1135.2 1135.6C1135.3 1135.7 1135.4 1135.8 1135.6 1135.9C1136.6 1136.5 1138.1 1136.6 1139.3 1136.1L1148.9 1132.5C1149.1 1132.4 1149.3 1132.4 1149.4 1132.3C1150.4 1131.7 1150.6 1130.8 1149.8 1130.1L1063.2 1051.9C1063.1 1051.7 1063 1051.6 1062.8 1051.6Z" fill="#636363"/>
<path d="M1043.1 1059.2C1042.8 1059 1042.3 1059 1041.9 1059.1L1032.3 1062.7L1032.1 1062.8C1031.8 1063 1031.7 1063.3 1032 1063.5L1087.8 1113.9L1087.9 1114C1088.2 1114.2 1088.7 1114.2 1089.1 1114.1L1098.7 1110.5L1098.9 1110.4C1099.2 1110.2 1099.3 1109.9 1099 1109.7L1043.2 1059.3L1043.1 1059.2Z" fill="#636363"/>
<path d="M1044.5 1058.4C1043.5 1057.8 1042 1057.7 1040.8 1058.2L1031.2 1061.8C1031 1061.9 1030.8 1061.9 1030.7 1062C1029.7 1062.6 1029.5 1063.5 1030.3 1064.2L1086.1 1114.6L1086.9 1114.3L1087.7 1114L1031.9 1063.6C1031.6 1063.4 1031.7 1063.1 1032 1062.9L1032.2 1062.8L1041.8 1059.2C1042.2 1059 1042.7 1059.1 1043 1059.3L1043.1 1059.4L1098.9 1109.8C1099.2 1110 1099.1 1110.3 1098.8 1110.5L1098.6 1110.6L1089 1114.2C1088.6 1114.4 1088.1 1114.3 1087.8 1114.1L1087.7 1114L1086.9 1114.3L1086.1 1114.6C1086.2 1114.7 1086.4 1114.8 1086.5 1114.9C1087.5 1115.5 1089 1115.6 1090.2 1115.1L1099.8 1111.5C1100 1111.4 1100.1 1111.3 1100.3 1111.3C1101.3 1110.7 1101.5 1109.8 1100.7 1109.1L1044.9 1058.7C1044.8 1058.5 1044.6 1058.4 1044.5 1058.4Z" fill="#636363"/>
<path d="M1203.3 1180.5C1202.3 1179.9 1200.8 1179.8 1199.6 1180.3L1175 1189.4C1174.8 1189.5 1174.6 1189.6 1174.5 1189.6C1173.5 1190.2 1173.3 1191.1 1174.1 1191.8L1189.9 1206.1C1190 1206.2 1190.2 1206.3 1190.3 1206.4C1191.3 1207 1192.8 1207.1 1194 1206.6L1218.6 1197.5C1218.8 1197.4 1219 1197.3 1219.1 1197.3C1220.1 1196.7 1220.3 1195.8 1219.5 1195.1L1203.7 1180.8C1203.5 1180.7 1203.4 1180.6 1203.3 1180.5Z" fill="white"/>
<path d="M1204.7 1179.7C1203.1 1178.8 1200.5 1178.6 1198.5 1179.3L1173.9 1188.4C1173.6 1188.5 1173.3 1188.7 1173.1 1188.8C1171.5 1189.7 1171.2 1191.2 1172.4 1192.4L1188.2 1206.7C1188.4 1206.9 1188.6 1207 1188.9 1207.2C1190.5 1208.1 1193.1 1208.3 1195.1 1207.6L1219.7 1198.5C1220 1198.4 1220.3 1198.2 1220.5 1198.1C1222.1 1197.2 1222.5 1195.7 1221.2 1194.5L1220.4 1194.8L1219.6 1195.1C1220.4 1195.8 1220.2 1196.7 1219.2 1197.3C1219.1 1197.4 1218.9 1197.5 1218.7 1197.5L1194.1 1206.6C1192.9 1207 1191.3 1206.9 1190.4 1206.4C1190.2 1206.3 1190.1 1206.2 1190 1206.1L1174.2 1191.8C1173.4 1191.1 1173.6 1190.2 1174.6 1189.6C1174.7 1189.5 1174.9 1189.4 1175.1 1189.4L1199.7 1180.3C1200.9 1179.9 1202.5 1180 1203.4 1180.5C1203.5 1180.6 1203.7 1180.7 1203.8 1180.8L1219.6 1195.1L1220.4 1194.8L1221.2 1194.5L1205.4 1180.2C1205.1 1180 1204.9 1179.8 1204.7 1179.7Z" fill="#636363"/>
<path d="M996.798 898.6C996.598 898.5 996.498 898.4 996.298 898.3L773.998 795.5C771.598 794.4 768.098 794.5 765.998 795.8C765.898 795.9 765.698 796 765.598 796.1L652.398 878.4C650.498 879.8 650.698 881.8 652.898 883C653.098 883.1 653.198 883.2 653.398 883.3L875.698 986C878.098 987.1 881.598 987 883.698 985.7C883.898 985.6 883.998 985.5 884.098 985.4L997.298 903.1C999.198 901.8 998.998 899.8 996.798 898.6Z" fill="white"/>
<path d="M652.799 883C650.699 881.8 650.399 879.8 652.299 878.4L765.499 796.1C765.599 796 765.799 795.9 765.899 795.8C767.999 794.6 771.499 794.4 773.899 795.5L996.299 898.3C996.499 898.4 996.599 898.5 996.799 898.6C998.899 899.8 999.199 901.8 997.299 903.2L884.099 985.5C883.999 985.6 883.799 985.7 883.699 985.8C881.599 987 878.099 987.2 875.699 986.1L653.299 883.2C653.199 883.1 652.999 883.1 652.799 883ZM998.299 897.8C998.099 897.7 997.899 897.6 997.599 897.5L775.199 794.6C771.999 793.1 767.399 793.3 764.499 794.9C764.299 795 764.099 795.1 763.899 795.3L650.699 877.6C648.099 879.5 648.499 882.1 651.299 883.8C651.499 883.9 651.699 884 651.999 884.1L874.399 986.9C877.599 988.4 882.199 988.2 885.099 986.6C885.299 986.5 885.499 986.3 885.699 986.2L998.899 904C1001.4 902.1 1001.1 899.4 998.299 897.8Z" fill="#636363"/>
<path d="M764.2 947.1L638.8 889.1C638.4 888.9 637.8 888.9 637.5 889.1H637.4L630.3 894.3C630 894.5 630 894.9 630.4 895.1H630.5L755.8 953C756.2 953.2 756.8 953.2 757.1 953H757.2L764.3 947.8C764.6 947.7 764.6 947.3 764.2 947.1Z" fill="#636363"/>
<path d="M630.298 895.2C629.898 895 629.898 894.7 630.198 894.4L637.298 889.2H637.398C637.798 889 638.298 889 638.698 889.2L763.998 947.1H764.098C764.498 947.3 764.498 947.6 764.198 947.9L757.098 953.1H756.998C756.698 953.3 756.098 953.3 755.698 953.1L630.298 895.2ZM765.598 946.3C765.498 946.3 765.398 946.2 765.398 946.2L639.998 888.2C638.798 887.6 637.098 887.7 635.998 888.3C635.898 888.3 635.798 888.4 635.798 888.4L628.698 893.6C627.698 894.3 627.898 895.3 628.898 895.9C628.998 895.9 629.098 896 629.098 896L754.398 953.9C755.598 954.5 757.298 954.4 758.398 953.8C758.498 953.8 758.498 953.7 758.598 953.7L765.698 948.5C766.798 947.9 766.698 946.9 765.598 946.3Z" fill="#636363"/>
<path d="M705.998 936.4L625.198 899C624.798 898.8 624.198 898.8 623.898 899H623.798L616.698 904.2C616.398 904.4 616.398 904.8 616.798 905H616.898L697.698 942.3C698.098 942.5 698.698 942.5 698.998 942.3H699.098L706.198 937.1C706.398 936.9 706.398 936.6 705.998 936.4Z" fill="white"/>
<path d="M616.799 905C616.399 904.8 616.399 904.5 616.699 904.2L623.799 899H623.899C624.299 898.8 624.799 898.8 625.199 899L705.999 936.3H706.099C706.499 936.5 706.499 936.8 706.199 937.1L699.099 942.3H698.999C698.699 942.5 698.099 942.5 697.699 942.3L616.799 905ZM707.399 935.5C707.299 935.5 707.299 935.4 707.199 935.4L626.399 898.1C625.199 897.5 623.499 897.6 622.399 898.2C622.299 898.2 622.199 898.3 622.199 898.3L615.099 903.5C614.099 904.2 614.299 905.2 615.299 905.8C615.399 905.8 615.499 905.9 615.499 905.9L696.299 943.2C697.499 943.8 699.199 943.7 700.299 943.1C700.399 943.1 700.499 943 700.499 943L707.599 937.8C708.599 937.2 708.499 936.2 707.399 935.5Z" fill="#636363"/>
<path d="M867.698 995C867.598 995 867.498 994.9 867.498 994.9L844.598 984.3C843.398 983.7 841.698 983.8 840.598 984.4C840.498 984.4 840.498 984.5 840.398 984.5L822.198 997.7C821.198 998.4 821.398 999.4 822.398 1000C822.498 1000 822.598 1000.1 822.598 1000.1L845.498 1010.7C846.698 1011.3 848.398 1011.2 849.498 1010.6C849.598 1010.6 849.598 1010.5 849.698 1010.5L867.898 997.3C868.898 996.6 868.698 995.6 867.698 995Z" fill="#636363"/>
<path d="M867.399 994.8C867.499 994.8 867.599 994.9 867.599 994.9C868.699 995.5 868.799 996.5 867.799 997.2L849.599 1010.4C849.499 1010.5 849.499 1010.5 849.399 1010.5C848.299 1011.1 846.599 1011.2 845.399 1010.6L822.499 1000C822.399 1000 822.299 999.9 822.299 999.9C821.199 999.3 821.099 998.3 822.099 997.6L840.299 984.4C840.399 984.3 840.399 984.3 840.499 984.3C841.599 983.7 843.299 983.6 844.499 984.2L867.399 994.8ZM869.099 994.1C868.999 994 868.799 994 868.699 993.9L845.799 983.3C843.799 982.4 840.899 982.5 839.099 983.5C838.999 983.6 838.799 983.7 838.699 983.7L820.499 997C818.899 998.2 819.099 999.8 820.899 1000.9C820.999 1001 821.199 1001 821.299 1001.1L844.199 1011.7C846.199 1012.6 849.099 1012.5 850.899 1011.5C850.999 1011.4 851.199 1011.3 851.299 1011.3L869.499 998.1C871.099 996.8 870.899 995.2 869.099 994.1Z" fill="#636363"/>
<path d="M1809.8 998.3C1809.6 998.2 1809.5 998.1 1809.3 998L1586.9 895.2C1584.5 894.1 1581 894.2 1578.9 895.5C1578.8 895.6 1578.6 895.7 1578.5 895.8L1465.3 978C1463.4 979.4 1463.6 981.4 1465.8 982.6C1466 982.7 1466.1 982.8 1466.3 982.9L1688.7 1085.7C1691.1 1086.8 1694.6 1086.7 1696.7 1085.4C1696.9 1085.3 1697 1085.2 1697.1 1085.1L1810.3 1002.8C1812.2 1001.5 1811.9 999.5 1809.8 998.3Z" fill="white"/>
<path d="M1465.8 982.7C1463.7 981.5 1463.4 979.5 1465.3 978.1L1578.5 895.8C1578.6 895.7 1578.8 895.6 1578.9 895.5C1581 894.3 1584.5 894.1 1586.9 895.2L1809.3 998C1809.5 998.1 1809.6 998.2 1809.8 998.3C1811.9 999.5 1812.2 1001.5 1810.3 1002.9L1697.1 1085.2C1697 1085.3 1696.8 1085.4 1696.7 1085.5C1694.6 1086.7 1691.1 1086.9 1688.7 1085.8L1466.3 983C1466.1 982.9 1465.9 982.8 1465.8 982.7ZM1811.2 997.5C1811 997.4 1810.8 997.3 1810.5 997.2L1588.1 894.4C1584.9 892.9 1580.3 893.1 1577.4 894.7C1577.2 894.8 1577 894.9 1576.8 895.1L1463.6 977.4C1461 979.3 1461.4 981.9 1464.2 983.6C1464.4 983.7 1464.6 983.8 1464.9 983.9L1687.3 1086.7C1690.5 1088.2 1695.1 1088 1698 1086.4C1698.2 1086.3 1698.4 1086.1 1698.6 1086L1811.8 1003.7C1814.4 1001.8 1814.1 999.1 1811.2 997.5Z" fill="#636363"/>
<path d="M1577.2 1046.8L1451.8 988.8C1451.4 988.6 1450.8 988.6 1450.5 988.8H1450.4L1443.3 994C1443 994.2 1443 994.6 1443.4 994.8H1443.5L1568.8 1052.7C1569.2 1052.9 1569.8 1052.9 1570.1 1052.7H1570.2L1577.3 1047.5C1577.6 1047.4 1577.5 1047 1577.2 1046.8Z" fill="#636363"/>
<path d="M1443.3 994.9C1442.9 994.7 1442.9 994.4 1443.2 994.1L1450.3 988.9H1450.4C1450.8 988.7 1451.3 988.7 1451.7 988.9L1577 1046.8H1577.1C1577.5 1047 1577.5 1047.3 1577.2 1047.6L1570.1 1052.8H1570C1569.7 1053 1569.1 1053 1568.7 1052.8L1443.3 994.9ZM1578.6 1046C1578.5 1046 1578.4 1045.9 1578.4 1045.9L1453 987.9C1451.8 987.3 1450.1 987.4 1449 988C1448.9 988 1448.8 988.1 1448.8 988.1L1441.7 993.3C1440.7 994 1440.9 995 1441.9 995.6C1442 995.6 1442.1 995.7 1442.1 995.7L1567.4 1053.6C1568.6 1054.2 1570.3 1054.1 1571.4 1053.5C1571.5 1053.5 1571.5 1053.4 1571.6 1053.4L1578.7 1048.2C1579.8 1047.6 1579.6 1046.6 1578.6 1046Z" fill="#636363"/>
<path d="M1519 1036.1L1438.2 998.7C1437.8 998.5 1437.2 998.5 1436.9 998.7H1436.8L1429.7 1003.9C1429.4 1004.1 1429.4 1004.5 1429.8 1004.7H1429.9L1510.7 1042C1511.1 1042.2 1511.7 1042.2 1512 1042H1512.1L1519.2 1036.8C1519.4 1036.6 1519.4 1036.3 1519 1036.1Z" fill="white"/>
<path d="M1429.7 1004.7C1429.3 1004.5 1429.3 1004.2 1429.6 1003.9L1436.7 998.7H1436.8C1437.2 998.5 1437.7 998.5 1438.1 998.7L1518.9 1036H1519C1519.4 1036.2 1519.4 1036.5 1519.1 1036.8L1512 1042H1511.9C1511.6 1042.2 1511 1042.2 1510.6 1042L1429.7 1004.7ZM1520.3 1035.2C1520.2 1035.2 1520.2 1035.1 1520.1 1035.1L1439.3 997.8C1438.1 997.2 1436.4 997.3 1435.3 997.9C1435.2 997.9 1435.1 998 1435.1 998L1428 1003.2C1427 1003.9 1427.2 1004.9 1428.2 1005.5C1428.3 1005.5 1428.4 1005.6 1428.4 1005.6L1509.2 1042.9C1510.4 1043.5 1512.1 1043.4 1513.2 1042.8C1513.3 1042.8 1513.4 1042.7 1513.4 1042.7L1520.5 1037.5C1521.6 1036.9 1521.5 1035.9 1520.3 1035.2C1520.4 1035.3 1520.4 1035.3 1520.3 1035.2Z" fill="#636363"/>
<path d="M1680.6 1094.7C1680.5 1094.7 1680.4 1094.6 1680.4 1094.6L1657.5 1084C1656.3 1083.4 1654.6 1083.5 1653.5 1084.1C1653.4 1084.1 1653.4 1084.2 1653.3 1084.2L1635.1 1097.4C1634.1 1098.1 1634.3 1099.1 1635.3 1099.7C1635.4 1099.7 1635.5 1099.8 1635.5 1099.8L1658.4 1110.4C1659.6 1111 1661.3 1110.9 1662.4 1110.3C1662.5 1110.3 1662.5 1110.2 1662.6 1110.2L1680.8 1097C1681.8 1096.3 1681.7 1095.3 1680.6 1094.7Z" fill="#636363"/>
<path d="M1680.4 1094.5C1680.5 1094.5 1680.6 1094.6 1680.6 1094.6C1681.7 1095.2 1681.8 1096.2 1680.8 1096.9L1662.6 1110.1C1662.5 1110.2 1662.5 1110.2 1662.4 1110.2C1661.3 1110.8 1659.6 1110.9 1658.4 1110.3L1635.5 1099.7C1635.4 1099.7 1635.3 1099.6 1635.3 1099.6C1634.2 1099 1634.1 1098 1635.1 1097.3L1653.3 1084.1C1653.4 1084 1653.4 1084 1653.5 1084C1654.6 1083.4 1656.3 1083.3 1657.5 1083.9L1680.4 1094.5ZM1682 1093.9C1681.9 1093.8 1681.7 1093.8 1681.6 1093.7L1658.7 1083.1C1656.7 1082.2 1653.8 1082.3 1652 1083.3C1651.9 1083.4 1651.7 1083.5 1651.6 1083.5L1633.4 1096.7C1631.8 1097.9 1632 1099.5 1633.8 1100.6C1633.9 1100.7 1634.1 1100.7 1634.2 1100.8L1657.1 1111.4C1659.1 1112.3 1662 1112.2 1663.8 1111.2C1663.9 1111.1 1664.1 1111 1664.2 1111L1682.4 1097.8C1684 1096.5 1683.8 1094.9 1682 1093.9Z" fill="#636363"/>
<path d="M618.9 753.3C618.4 753 617.9 752.8 617.3 752.6L361.2 680.9C358.8 680.2 356.1 680.6 354.3 681.6C353.8 681.9 353.5 682.2 353.1 682.5L274.4 777.3C273.3 778.7 273.8 780.3 275.6 781.3C276.1 781.6 276.6 781.8 277.2 782L533.3 853.7C535.7 854.4 538.4 854 540.2 853C540.7 852.7 541 852.4 541.4 852.1L620.1 757.3C621.2 755.9 620.7 754.3 618.9 753.3Z" fill="#636363"/>
<path d="M275.6 781.3C273.8 780.3 273.3 778.7 274.4 777.3L353.1 682.5C353.4 682.1 353.8 681.8 354.3 681.6C356.1 680.6 358.8 680.3 361.2 680.9L617.3 752.6C617.9 752.8 618.5 753 618.9 753.3C620.7 754.3 621.2 755.9 620.1 757.3L541.4 852.1C541.1 852.5 540.7 852.8 540.2 853C538.4 854 535.7 854.3 533.3 853.7L277.3 782C276.7 781.8 276.1 781.6 275.6 781.3ZM620.3 752.4C619.7 752 618.9 751.7 618.1 751.5L362 679.9C358.8 679 355.2 679.4 352.9 680.8C352.3 681.2 351.8 681.6 351.4 682.1L272.7 776.9C271.2 778.7 271.9 780.8 274.3 782.2C274.9 782.6 275.6 782.9 276.5 783.1L532.6 854.8C535.7 855.7 539.4 855.3 541.7 853.9C542.3 853.5 542.8 853.1 543.2 852.6L621.9 757.8C623.4 755.9 622.7 753.8 620.3 752.4Z" fill="#636363"/>
<path d="M410 830.2C409.9 830.2 409.8 830.1 409.7 830.1L265.3 789.7C264.9 789.6 264.5 789.6 264.2 789.8C264.1 789.8 264.1 789.9 264 790L259.1 796C258.9 796.2 259 796.5 259.3 796.7C259.4 796.7 259.5 796.8 259.6 796.8L403.9 837C404.3 837.1 404.8 837.1 405 836.9C405.1 836.9 405.1 836.8 405.2 836.7L410.1 830.7C410.4 830.6 410.3 830.3 410 830.2Z" fill="white"/>
<path d="M259.3 796.5C259 796.3 258.9 796.1 259.1 795.8L264 789.8C264.1 789.7 264.1 789.7 264.2 789.6C264.5 789.4 264.9 789.4 265.3 789.5L409.7 830C409.8 830 409.9 830.1 410 830.1C410.3 830.3 410.4 830.5 410.2 830.8L405.3 836.8C405.2 836.9 405.2 836.9 405.1 837C404.8 837.2 404.4 837.2 404 837.1L259.7 796.7C259.5 796.6 259.4 796.6 259.3 796.5ZM411.4 829.3C411.2 829.2 410.9 829 410.6 829L266.2 788.6C265 788.3 263.6 788.4 262.8 788.9C262.6 789 262.4 789.2 262.2 789.4L257.3 795.4C256.7 796.1 257 796.9 257.9 797.4C258.1 797.5 258.4 797.6 258.7 797.7L403 838.1C404.2 838.4 405.5 838.3 406.4 837.8C406.6 837.7 406.8 837.5 407 837.3L412 831.3C412.6 830.6 412.3 829.8 411.4 829.3Z" fill="#636363"/>
<path d="M349.2 827.2C349.1 827.2 349 827.1 348.9 827.1L255.9 801.1C255.5 801 255 801 254.8 801.2C254.7 801.2 254.7 801.3 254.6 801.4L249.7 807.4C249.5 807.6 249.6 807.9 249.9 808.1C250 808.1 250.1 808.2 250.2 808.2L343.2 834.2C343.6 834.3 344.1 834.3 344.3 834.1C344.4 834.1 344.4 834 344.5 833.9L349.4 827.9C349.6 827.6 349.5 827.3 349.2 827.2Z" fill="#636363"/>
<path d="M249.8 807.9C249.5 807.7 249.4 807.5 249.6 807.2L254.5 801.2C254.6 801.1 254.6 801.1 254.7 801C255 800.8 255.4 800.8 255.8 800.9L348.8 826.9C348.9 826.9 349 827 349.1 827C349.4 827.2 349.5 827.4 349.3 827.7L344.4 833.7C344.4 833.8 344.3 833.8 344.2 833.9C343.9 834.1 343.5 834.1 343.1 834L250.1 808C250 808 249.9 808 249.8 807.9ZM350.6 826.3C350.4 826.2 350.1 826 349.8 826L256.8 800C255.6 799.7 254.2 799.8 253.4 800.3C253.2 800.4 253 800.6 252.8 800.8L247.9 806.8C247.3 807.5 247.6 808.3 248.5 808.8C248.7 808.9 249 809.1 249.3 809.1L342.3 835.1C343.5 835.4 344.8 835.3 345.7 834.8C345.9 834.7 346.1 834.5 346.3 834.3L351.2 828.3C351.8 827.6 351.5 826.8 350.6 826.3Z" fill="#636363"/>
<path d="M529.499 863.7C529.299 863.6 528.999 863.5 528.699 863.4L502.299 856C501.099 855.7 499.699 855.8 498.899 856.3C498.699 856.4 498.499 856.6 498.299 856.8L485.599 872C484.999 872.7 485.299 873.5 486.199 874C486.399 874.1 486.699 874.2 486.999 874.3L513.399 881.7C514.599 882 515.999 881.9 516.799 881.4C516.999 881.3 517.199 881.1 517.399 880.9L530.099 865.6C530.699 865 530.399 864.2 529.499 863.7Z" fill="white"/>
<path d="M528.701 863.3C529.001 863.4 529.301 863.5 529.501 863.6C530.401 864.1 530.701 864.9 530.101 865.6L517.401 880.9C517.301 881.1 517.101 881.2 516.801 881.4C515.901 881.9 514.601 882.1 513.401 881.7L487.001 874.3C486.701 874.2 486.401 874.1 486.201 874C485.301 873.5 485.001 872.7 485.601 872L498.301 856.7C498.501 856.5 498.701 856.4 498.901 856.2C499.801 855.7 501.101 855.5 502.301 855.9L528.701 863.3ZM530.901 862.9C530.501 862.7 530.101 862.5 529.501 862.3L503.101 854.9C501.101 854.4 498.801 854.6 497.401 855.5C497.001 855.7 496.701 856 496.401 856.3L483.701 871.5C482.801 872.6 483.201 874 484.701 874.8C485.101 875 485.501 875.2 486.001 875.3L512.401 882.7C514.401 883.3 516.701 883 518.101 882.1C518.501 881.9 518.801 881.6 519.101 881.3L531.801 866C532.801 865 532.401 863.7 530.901 862.9Z" fill="#636363"/>
<path d="M1619.8 455.6C1619.3 455.3 1618.8 455.1 1618.2 454.9L1362 383.3C1359.6 382.6 1356.9 383 1355.1 384C1354.6 384.3 1354.3 384.6 1353.9 384.9L1275.2 479.7C1274.1 481.1 1274.6 482.7 1276.4 483.7C1276.9 484 1277.4 484.2 1278 484.4L1534.1 556.1C1536.5 556.8 1539.2 556.4 1541 555.4C1541.5 555.1 1541.8 554.8 1542.2 554.5L1620.9 459.7C1622.1 458.2 1621.5 456.6 1619.8 455.6Z" fill="#636363"/>
<path d="M1276.5 483.7C1274.7 482.7 1274.2 481.1 1275.3 479.7L1354 384.9C1354.3 384.5 1354.7 384.2 1355.2 384C1357 383 1359.7 382.7 1362.1 383.3L1618.2 455C1618.8 455.2 1619.4 455.4 1619.8 455.7C1621.6 456.7 1622.1 458.3 1621 459.7L1542.3 554.5C1542 554.9 1541.6 555.2 1541.1 555.4C1539.3 556.4 1536.6 556.7 1534.2 556.1L1278.1 484.4C1277.5 484.2 1277 483.9 1276.5 483.7ZM1621.2 454.8C1620.6 454.4 1619.8 454.1 1619 453.9L1362.9 382.2C1359.7 381.3 1356.1 381.7 1353.8 383.1C1353.2 383.5 1352.7 383.9 1352.3 384.4L1273.6 479.2C1272.1 481 1272.8 483.1 1275.2 484.5C1275.8 484.9 1276.5 485.2 1277.4 485.4L1533.5 557.1C1536.6 558 1540.3 557.6 1542.6 556.2C1543.2 555.8 1543.7 555.4 1544.1 554.9L1622.8 460.1C1624.3 458.3 1623.5 456.1 1621.2 454.8Z" fill="#636363"/>
<path d="M1410.9 532.5C1410.8 532.5 1410.7 532.4 1410.6 532.4L1266.2 492C1265.8 491.9 1265.4 491.9 1265.1 492.1C1265 492.1 1265 492.2 1264.9 492.3L1260 498.3C1259.8 498.5 1259.9 498.8 1260.2 499C1260.3 499 1260.4 499.1 1260.5 499.1L1404.8 539.5C1405.2 539.6 1405.7 539.6 1405.9 539.4C1406 539.4 1406 539.3 1406.1 539.2L1411 533.2C1411.3 532.9 1411.2 532.7 1410.9 532.5Z" fill="white"/>
<path d="M1260.2 498.9C1259.9 498.7 1259.8 498.5 1260 498.2L1264.9 492.2C1265 492.1 1265 492.1 1265.1 492C1265.4 491.8 1265.8 491.8 1266.2 491.9L1410.6 532.3C1410.7 532.3 1410.8 532.4 1410.9 532.4C1411.2 532.6 1411.3 532.8 1411.1 533.1L1406.2 539.1C1406.1 539.2 1406.1 539.2 1406 539.3C1405.7 539.5 1405.3 539.5 1404.9 539.4L1260.4 499C1260.3 499 1260.2 498.9 1260.2 498.9ZM1412.3 531.7C1412.1 531.6 1411.8 531.4 1411.5 531.4L1267.1 491C1265.9 490.7 1264.5 490.8 1263.7 491.3C1263.5 491.4 1263.3 491.6 1263.1 491.8L1258.2 497.8C1257.6 498.5 1257.9 499.3 1258.8 499.8C1259 499.9 1259.3 500 1259.6 500.1L1403.9 540.5C1405.1 540.8 1406.4 540.7 1407.3 540.2C1407.5 540.1 1407.7 539.9 1407.9 539.7L1412.9 533.7C1413.4 533 1413.2 532.2 1412.3 531.7Z" fill="#636363"/>
<path d="M1350.1 529.5C1350 529.5 1349.9 529.4 1349.8 529.4L1256.8 503.4C1256.4 503.3 1255.9 503.3 1255.7 503.5C1255.6 503.5 1255.6 503.6 1255.5 503.7L1250.6 509.7C1250.4 509.9 1250.5 510.2 1250.8 510.4C1250.9 510.4 1251 510.5 1251.1 510.5L1344.1 536.5C1344.5 536.6 1345 536.6 1345.2 536.4C1345.3 536.4 1345.3 536.3 1345.4 536.2L1350.3 530.2C1350.5 529.9 1350.4 529.7 1350.1 529.5Z" fill="#636363"/>
<path d="M1250.7 510.3C1250.4 510.1 1250.3 509.9 1250.5 509.6L1255.4 503.6C1255.5 503.5 1255.5 503.5 1255.6 503.4C1255.9 503.2 1256.3 503.2 1256.7 503.3L1349.7 529.3C1349.8 529.3 1349.9 529.4 1350 529.4C1350.3 529.6 1350.4 529.8 1350.2 530.1L1345.3 536.1C1345.3 536.2 1345.2 536.2 1345.1 536.3C1344.8 536.5 1344.4 536.5 1344 536.4L1251 510.4C1250.9 510.3 1250.8 510.3 1250.7 510.3ZM1351.5 528.7C1351.3 528.6 1351 528.4 1350.7 528.4L1257.7 502.4C1256.5 502.1 1255.1 502.2 1254.3 502.7C1254.1 502.8 1253.9 503 1253.7 503.2L1248.8 509.2C1248.2 509.9 1248.5 510.7 1249.4 511.2C1249.6 511.3 1249.9 511.5 1250.2 511.5L1343.2 537.5C1344.4 537.8 1345.7 537.7 1346.6 537.2C1346.8 537.1 1347 536.9 1347.2 536.7L1352.1 530.7C1352.6 530 1352.4 529.2 1351.5 528.7Z" fill="#636363"/>
<path d="M1530.4 566C1530.2 565.9 1529.9 565.8 1529.6 565.7L1503.2 558.3C1502 558 1500.6 558.1 1499.8 558.6C1499.6 558.7 1499.4 558.9 1499.2 559.1L1486.5 574.4C1485.9 575.1 1486.2 575.9 1487.1 576.4C1487.3 576.5 1487.6 576.6 1487.9 576.7L1514.3 584.1C1515.5 584.4 1516.9 584.3 1517.7 583.8C1517.9 583.7 1518.1 583.5 1518.3 583.3L1531 568C1531.5 567.3 1531.3 566.5 1530.4 566Z" fill="white"/>
<path d="M1529.6 565.7C1529.9 565.8 1530.2 565.9 1530.4 566C1531.3 566.5 1531.6 567.3 1531 568L1518.3 583.3C1518.2 583.5 1518 583.6 1517.7 583.8C1516.8 584.3 1515.5 584.5 1514.3 584.1L1487.9 576.7C1487.6 576.6 1487.3 576.5 1487.1 576.4C1486.2 575.9 1485.9 575.1 1486.5 574.4L1499.2 559.1C1499.4 558.9 1499.6 558.8 1499.8 558.6C1500.7 558.1 1502 557.9 1503.2 558.3L1529.6 565.7ZM1531.8 565.2C1531.4 565 1531 564.8 1530.4 564.6L1504 557.2C1502 556.7 1499.7 556.9 1498.3 557.8C1497.9 558 1497.6 558.3 1497.3 558.6L1484.6 573.8C1483.7 574.9 1484.1 576.3 1485.6 577.1C1486 577.3 1486.4 577.5 1486.9 577.6L1513.3 585C1515.3 585.6 1517.6 585.3 1519 584.4C1519.4 584.2 1519.7 583.9 1520 583.6L1532.7 568.3C1533.7 567.4 1533.2 566.1 1531.8 565.2Z" fill="#636363"/>
<path d="M936.5 1094C936 1093.7 935.5 1093.5 934.9 1093.3L678.8 1021.6C676.4 1020.9 673.7 1021.3 671.9 1022.3C671.4 1022.6 671.1 1022.9 670.7 1023.2L592 1118C590.9 1119.4 591.4 1121 593.2 1122C593.7 1122.3 594.2 1122.5 594.8 1122.7L850.9 1194.4C853.3 1195.1 856 1194.7 857.8 1193.7C858.3 1193.4 858.6 1193.1 859 1192.8L937.7 1098C938.8 1096.6 938.2 1095 936.5 1094Z" fill="#636363"/>
<path d="M593.2 1122.1C591.4 1121.1 590.9 1119.5 592 1118.1L670.7 1023.3C671 1022.9 671.4 1022.6 671.9 1022.4C673.7 1021.4 676.4 1021.1 678.8 1021.7L934.9 1093.4C935.5 1093.6 936.1 1093.8 936.5 1094.1C938.3 1095.1 938.8 1096.7 937.7 1098.1L859 1192.9C858.7 1193.3 858.3 1193.6 857.8 1193.8C856 1194.8 853.3 1195.1 850.9 1194.5L594.8 1122.8C594.2 1122.6 593.7 1122.3 593.2 1122.1ZM937.9 1093.2C937.3 1092.8 936.5 1092.5 935.7 1092.3L679.6 1020.6C676.4 1019.7 672.8 1020.1 670.5 1021.5C669.9 1021.9 669.4 1022.3 669 1022.8L590.3 1117.6C588.8 1119.4 589.5 1121.5 591.9 1122.9C592.5 1123.3 593.2 1123.6 594.1 1123.8L850.2 1195.5C853.3 1196.4 857 1196 859.3 1194.6C859.9 1194.2 860.4 1193.8 860.8 1193.3L939.5 1098.5C941 1096.7 940.2 1094.5 937.9 1093.2Z" fill="#636363"/>
<path d="M727.6 1170.9C727.5 1170.9 727.4 1170.8 727.3 1170.8L582.9 1130.4C582.5 1130.3 582.1 1130.3 581.8 1130.5C581.7 1130.5 581.7 1130.6 581.6 1130.7L576.7 1136.7C576.5 1136.9 576.6 1137.2 576.9 1137.4C577 1137.4 577.1 1137.5 577.2 1137.5L721.5 1177.9C721.9 1178 722.4 1178 722.6 1177.8C722.7 1177.8 722.7 1177.7 722.8 1177.6L727.7 1171.6C728 1171.3 727.9 1171.1 727.6 1170.9Z" fill="white"/>
<path d="M576.9 1137.3C576.6 1137.1 576.5 1136.9 576.7 1136.6L581.6 1130.6C581.7 1130.5 581.7 1130.5 581.8 1130.4C582.1 1130.2 582.5 1130.2 582.9 1130.3L727.3 1170.7C727.4 1170.7 727.5 1170.8 727.6 1170.8C727.9 1171 728 1171.2 727.8 1171.5L722.9 1177.5C722.8 1177.6 722.8 1177.6 722.7 1177.7C722.4 1177.9 722 1177.9 721.6 1177.8L577.3 1137.4C577 1137.4 576.9 1137.3 576.9 1137.3ZM729 1170.1C728.8 1170 728.5 1169.8 728.2 1169.8L583.8 1129.4C582.6 1129.1 581.2 1129.2 580.4 1129.7C580.2 1129.8 580 1130 579.8 1130.2L574.9 1136.2C574.3 1136.9 574.6 1137.7 575.5 1138.2C575.7 1138.3 576 1138.4 576.3 1138.5L720.6 1178.9C721.8 1179.2 723.1 1179.1 724 1178.6C724.2 1178.5 724.4 1178.3 724.6 1178.1L729.6 1172.1C730.1 1171.4 729.9 1170.6 729 1170.1Z" fill="#636363"/>
<path d="M666.799 1167.9C666.699 1167.9 666.599 1167.8 666.499 1167.8L573.499 1141.8C573.099 1141.7 572.599 1141.7 572.399 1141.9C572.299 1141.9 572.299 1142 572.199 1142.1L567.299 1148.1C567.099 1148.3 567.199 1148.6 567.499 1148.8C567.599 1148.8 567.699 1148.9 567.799 1148.9L660.799 1174.9C661.199 1175 661.699 1175 661.899 1174.8C661.999 1174.8 661.999 1174.7 662.099 1174.6L666.999 1168.6C667.199 1168.3 667.099 1168.1 666.799 1167.9Z" fill="#636363"/>
<path d="M567.4 1148.6C567.1 1148.4 567 1148.2 567.2 1147.9L572.1 1141.9C572.2 1141.8 572.2 1141.8 572.3 1141.7C572.6 1141.5 573 1141.5 573.4 1141.6L666.4 1167.6C666.5 1167.6 666.6 1167.7 666.7 1167.7C667 1167.9 667.1 1168.1 666.9 1168.4L662 1174.4C662 1174.5 661.9 1174.5 661.8 1174.6C661.5 1174.8 661.1 1174.8 660.7 1174.7L567.7 1148.7C567.6 1148.7 567.5 1148.7 567.4 1148.6ZM668.2 1167.1C668 1167 667.7 1166.8 667.4 1166.8L574.4 1140.8C573.2 1140.5 571.8 1140.6 571 1141.1C570.8 1141.2 570.6 1141.4 570.4 1141.6L565.5 1147.6C564.9 1148.3 565.2 1149.1 566.1 1149.6C566.3 1149.7 566.6 1149.9 566.9 1149.9L659.9 1175.9C661.1 1176.2 662.4 1176.1 663.3 1175.6C663.5 1175.5 663.7 1175.3 663.9 1175.1L668.8 1169.1C669.4 1168.4 669.1 1167.6 668.2 1167.1Z" fill="#636363"/>
<path d="M847.099 1204.4C846.899 1204.3 846.599 1204.2 846.299 1204.1L819.899 1196.7C818.699 1196.4 817.299 1196.5 816.499 1197C816.299 1197.1 816.099 1197.3 815.899 1197.5L803.199 1212.8C802.599 1213.5 802.899 1214.3 803.799 1214.8C803.999 1214.9 804.299 1215 804.599 1215.1L830.999 1222.5C832.199 1222.8 833.599 1222.7 834.399 1222.2C834.599 1222.1 834.799 1221.9 834.999 1221.7L847.699 1206.4C848.199 1205.7 847.999 1204.9 847.099 1204.4Z" fill="white"/>
<path d="M846.3 1204.1C846.6 1204.2 846.9 1204.3 847.1 1204.4C848 1204.9 848.3 1205.7 847.7 1206.4L835 1221.7C834.9 1221.9 834.7 1222 834.4 1222.2C833.5 1222.7 832.2 1222.9 831 1222.5L804.6 1215.1C804.3 1215 804 1214.9 803.8 1214.8C802.9 1214.3 802.6 1213.5 803.2 1212.8L815.9 1197.5C816.1 1197.3 816.3 1197.2 816.5 1197C817.4 1196.5 818.7 1196.3 819.9 1196.7L846.3 1204.1ZM848.5 1203.6C848.1 1203.4 847.7 1203.2 847.1 1203L820.7 1195.6C818.7 1195.1 816.4 1195.3 815 1196.2C814.6 1196.4 814.3 1196.7 814 1197L801.3 1212.2C800.4 1213.3 800.8 1214.7 802.3 1215.5C802.7 1215.7 803.1 1215.9 803.6 1216L830 1223.4C832 1224 834.3 1223.7 835.7 1222.8C836.1 1222.6 836.4 1222.3 836.7 1222L849.4 1206.7C850.4 1205.8 850 1204.4 848.5 1203.6Z" fill="#636363"/>
<path d="M1217.9 428.8L1215.8 490.7L1215.7 567.6L1238.5 580L1238.6 503.1L1240.7 441.2L1217.9 428.8Z" fill="#636363" stroke="#636363" stroke-width="2" stroke-miterlimit="10" stroke-linecap="round" stroke-linejoin="round"/>
<path d="M1328.3 567.5C1328.4 567.5 1328.6 567.5 1328.7 567.6C1329 567.7 1329.2 567.8 1329.5 567.9L1306.7 555.5C1306.5 555.4 1306.3 555.3 1306.1 555.3H1306C1305.9 555.3 1305.7 555.3 1305.6 555.2C1305.5 555.2 1305.5 555.2 1305.4 555.2C1305.2 555.2 1305 555.2 1304.8 555.2L1277.3 559.1L1300.1 571.5L1327.6 567.6C1327.8 567.6 1328 567.6 1328.2 567.6C1328.2 567.5 1328.3 567.5 1328.3 567.5Z" fill="#636363" stroke="#636363" stroke-width="2" stroke-miterlimit="10" stroke-linecap="round" stroke-linejoin="round"/>
<path d="M1238.2 695.4L1238.3 629.4L1215.5 617L1215.4 683C1215.4 684.4 1216.1 685.5 1217.1 686.1L1239.9 698.5C1238.9 698 1238.2 696.8 1238.2 695.4Z" fill="#636363" stroke="#636363" stroke-width="2" stroke-miterlimit="10" stroke-linecap="round" stroke-linejoin="round"/>
<path d="M1160.3 591L1137.5 578.6L1215.7 567.6L1238.5 580L1160.3 591Z" fill="#636363" stroke="#636363" stroke-width="2" stroke-miterlimit="10" stroke-linecap="round" stroke-linejoin="round"/>
<path d="M1327.5 567.5C1329.5 567.2 1331.1 568.7 1331.1 570.9L1331 612.4C1331 614.6 1329.4 616.6 1327.3 616.8L1299.8 620.7L1299.7 686.7C1299.7 688.9 1298.1 690.9 1296 691.1L1241.7 698.7C1239.7 699 1238.1 697.5 1238.1 695.3L1238.2 629.3L1115.1 646.6C1113.1 646.9 1111.5 645.4 1111.5 643.2L1111.6 594.7C1111.6 592.5 1112.4 589.3 1113.6 587L1216.8 399.4C1218 397.1 1220.5 395.4 1222.5 395.1L1296.6 384.7C1298.6 384.4 1300.2 385.9 1300.2 388.1L1299.9 571.2L1327.5 567.5ZM1238.6 503.1L1240.7 441.2L1160.3 591L1238.5 580L1238.6 503.1Z" fill="white" stroke="#636363" stroke-width="2" stroke-miterlimit="10" stroke-linecap="round" stroke-linejoin="round"/>
<path d="M1111.6 643.3L1111.7 594.8L1088.9 582.4L1088.8 630.9C1088.8 632.3 1089.5 633.4 1090.5 634L1113.3 646.4C1112.3 645.8 1111.6 644.7 1111.6 643.3Z" fill="#636363" stroke="#636363" stroke-width="2" stroke-miterlimit="10" stroke-linecap="round" stroke-linejoin="round"/>
<path d="M1275.9 372.7C1275.3 372.4 1274.7 372.3 1273.9 372.4L1199.8 382.8C1199.5 382.8 1199.3 382.9 1199 383C1198.9 383 1198.8 383.1 1198.7 383.1C1198.5 383.2 1198.3 383.2 1198.1 383.3H1198C1197.8 383.4 1197.6 383.5 1197.4 383.6C1197.2 383.7 1197 383.8 1196.8 384C1196.8 384 1196.7 384 1196.7 384.1C1196.5 384.3 1196.2 384.4 1196 384.6L1195.9 384.7C1195.7 384.9 1195.5 385 1195.4 385.2C1195.3 385.3 1195.3 385.3 1195.2 385.4C1195.2 385.5 1195.1 385.5 1195.1 385.6C1194.9 385.8 1194.8 386 1194.7 386.2C1194.6 386.3 1194.6 386.4 1194.5 386.5C1194.4 386.7 1194.3 386.8 1194.2 387C1194.2 387 1194.2 387.1 1194.1 387.1L1090.9 574.7C1089.7 577 1088.9 580.2 1088.9 582.4L1111.7 594.8C1111.7 592.6 1112.5 589.4 1113.7 587.1L1216.9 399.5C1217 399.3 1217.1 399.1 1217.3 398.9C1217.4 398.8 1217.4 398.7 1217.5 398.6C1217.6 398.4 1217.8 398.2 1218 398C1218 397.9 1218.1 397.9 1218.1 397.8C1218.2 397.7 1218.2 397.7 1218.3 397.6C1218.5 397.4 1218.6 397.2 1218.8 397.1C1218.9 397.1 1218.9 397 1219 397C1219.2 396.8 1219.4 396.6 1219.7 396.5C1219.9 396.3 1220.1 396.2 1220.3 396.1C1220.5 396 1220.8 395.9 1221 395.8C1221.2 395.7 1221.4 395.6 1221.6 395.6C1221.7 395.6 1221.8 395.5 1221.9 395.5C1222.2 395.4 1222.5 395.3 1222.7 395.3L1296.8 384.9C1297.5 384.8 1298.2 384.9 1298.8 385.2L1275.9 372.7Z" fill="#636363" stroke="#636363" stroke-width="2" stroke-miterlimit="10" stroke-linecap="round" stroke-linejoin="round"/>
<path d="M1014 475.6L991.201 463.2C1009.8 473.3 1019.7 504.9 1019.6 562.3C1019.5 638.3 1002 672.3 970.401 676.7C962.501 677.8 955.501 676.8 949.301 673.5L972.101 685.9C972.501 686.1 972.801 686.3 973.201 686.5L972.601 686.2C978.601 689.3 985.401 690.2 993.101 689.2C1024.7 684.8 1042.2 650.8 1042.3 574.8C1042.4 517.3 1032.6 485.7 1014 475.6Z" fill="#636363" stroke="#636363" stroke-width="2" stroke-miterlimit="10" stroke-linecap="round" stroke-linejoin="round"/>
<path d="M1028.8 417.6C1027.9 417.1 1026.9 416.6 1026 416.1C1026 416.1 1025.9 416.1 1025.9 416C1024.8 415.4 1023.6 414.9 1022.4 414.4C1022.2 414.3 1021.9 414.2 1021.7 414.1C1020.8 413.7 1019.8 413.3 1018.9 413C1018.5 412.8 1018 412.7 1017.6 412.5C1016.8 412.2 1016 412 1015.2 411.7C1014.7 411.5 1014.2 411.4 1013.7 411.3C1012.9 411.1 1012.2 410.9 1011.4 410.7C1011.1 410.6 1010.9 410.6 1010.6 410.5C1010.2 410.4 1009.7 410.3 1009.3 410.2C1009.1 410.1 1008.9 410.1 1008.7 410C1007.7 409.8 1006.6 409.5 1005.6 409.3C1005.4 409.3 1005.1 409.2 1004.9 409.2C1004 409 1003.1 408.9 1002.1 408.7C1001.9 408.7 1001.7 408.6 1001.5 408.6C1000.4 408.4 999.4 408.3 998.3 408.2C998.1 408.2 997.8 408.1 997.6 408.1C996.6 408 995.7 407.9 994.7 407.8C994.5 407.8 994.4 407.8 994.2 407.8C993.1 407.7 992 407.7 990.8 407.6C990.5 407.6 990.3 407.6 990 407.6C989 407.6 987.9 407.6 986.9 407.6C986.8 407.6 986.6 407.6 986.5 407.6C985.4 407.6 984.2 407.6 983 407.7C982.7 407.7 982.4 407.7 982.2 407.7C981.1 407.8 980 407.8 978.9 407.9C978.8 407.9 978.7 407.9 978.6 407.9C977.4 408 976.2 408.1 975 408.2C974.7 408.2 974.4 408.3 974.1 408.3C972.9 408.4 971.7 408.6 970.4 408.8C969 409 967.7 409.2 966.3 409.4C965.9 409.5 965.6 409.5 965.2 409.6C964.1 409.8 962.9 410 961.8 410.3C961.6 410.3 961.4 410.4 961.1 410.4C959.8 410.7 958.5 411 957.2 411.3C956.9 411.4 956.6 411.5 956.2 411.6C955.2 411.9 954.1 412.2 953.1 412.4C952.8 412.5 952.5 412.6 952.2 412.7C950.9 413.1 949.7 413.5 948.4 413.9C948.2 414 947.9 414.1 947.7 414.2C946.7 414.6 945.6 414.9 944.6 415.3C944.3 415.4 943.9 415.5 943.6 415.7C942.4 416.2 941.2 416.6 940 417.2C939.9 417.2 939.8 417.3 939.7 417.3C938.6 417.8 937.5 418.3 936.4 418.8C936.2 418.9 936.1 418.9 935.9 419C935.7 419.1 935.6 419.2 935.4 419.2C934.2 419.8 933 420.4 931.8 421H931.7C930.5 421.6 929.3 422.3 928.1 423C927.8 423.2 927.5 423.3 927.2 423.5C926 424.2 924.8 424.9 923.7 425.6C922.6 426.3 921.4 427.1 920.3 427.8C920.2 427.9 920 428 919.9 428.1C919.7 428.2 919.6 428.3 919.4 428.5C918.8 428.9 918.2 429.3 917.6 429.8C917.3 430 916.9 430.3 916.6 430.5C915.9 431 915.3 431.5 914.7 432C914.5 432.2 914.2 432.4 914 432.6C913.1 433.3 912.2 434 911.4 434.7C911.2 434.8 911.1 435 910.9 435.1C910.2 435.7 909.5 436.3 908.8 436.9C908.7 437 908.6 437 908.6 437.1C908.3 437.3 908.1 437.6 907.9 437.8C907.4 438.2 907 438.6 906.5 439.1C906.2 439.4 905.8 439.8 905.5 440.1C905.1 440.5 904.6 441 904.2 441.4C903.9 441.7 903.5 442.1 903.2 442.4C902.8 442.8 902.3 443.3 901.9 443.7C901.6 444.1 901.2 444.4 900.9 444.8C900.5 445.3 900.1 445.7 899.7 446.2C899.5 446.4 899.3 446.6 899.2 446.8C899.1 447 898.9 447.1 898.8 447.3C898.4 447.8 897.9 448.3 897.5 448.8C897.2 449.2 896.9 449.5 896.6 449.9C896.2 450.4 895.7 451 895.3 451.5C895 451.9 894.7 452.2 894.5 452.6C894 453.2 893.6 453.8 893.1 454.4C892.9 454.7 892.6 455 892.4 455.3C891.8 456.1 891.2 456.9 890.7 457.7C890.6 457.8 890.5 457.9 890.4 458.1C889.7 459.1 889 460.2 888.3 461.2C888.1 461.5 887.9 461.8 887.7 462.2C887.2 463 886.7 463.7 886.2 464.5C886 464.9 885.7 465.3 885.5 465.7C885 466.5 884.6 467.2 884.1 468C883.9 468.4 883.7 468.7 883.5 469.1C882.9 470.1 882.3 471.2 881.7 472.3C881.7 472.4 881.6 472.5 881.6 472.5C880.8 474 880 475.5 879.2 477.1C879 477.4 878.9 477.7 878.7 478C878 479.5 877.2 481.1 876.5 482.6C876.4 482.9 876.2 483.2 876.1 483.5C875.4 485.1 874.7 486.6 874.1 488.2C874.1 488.3 874 488.4 874 488.5C873.3 490.2 872.7 491.9 872 493.6C871.9 493.8 871.9 494 871.8 494.2C871.7 494.4 871.7 494.6 871.6 494.8C871.2 496 870.7 497.3 870.3 498.5C870.2 498.7 870.2 498.9 870.1 499.1C869.6 500.5 869.1 502 868.7 503.5C868.6 503.9 868.5 504.3 868.3 504.7C868 505.8 867.6 507 867.3 508.1C867.2 508.6 867 509 866.9 509.5C866.5 510.8 866.2 512.2 865.8 513.6C865.8 513.8 865.7 514 865.7 514.2C865.3 515.8 864.9 517.3 864.6 518.9C864.5 519.3 864.4 519.8 864.3 520.2C864 521.4 863.8 522.6 863.5 523.8C863.4 524.3 863.3 524.8 863.2 525.3C862.9 526.8 862.6 528.3 862.3 529.8C862.3 530 862.2 530.1 862.2 530.3C861.9 532 861.6 533.7 861.3 535.4C861.2 535.9 861.1 536.4 861.1 536.9C860.9 538.2 860.7 539.5 860.5 540.8C860.4 541.3 860.4 541.8 860.3 542.4C860.1 544 859.9 545.7 859.7 547.3C859.7 547.4 859.7 547.5 859.7 547.7C859.5 549.5 859.3 551.3 859.1 553.1C859 553.6 859 554.1 859 554.7C858.9 556.1 858.8 557.4 858.7 558.8C858.7 559.4 858.6 559.9 858.6 560.5C858.5 562.3 858.3 564.1 858.2 565.9C858.2 566 858.2 566 858.2 566.1C858.1 568 858 569.9 857.9 571.8C857.9 572.4 857.9 572.9 857.8 573.5C857.8 574.9 857.7 576.4 857.7 577.8C857.7 578.4 857.7 579 857.7 579.5C857.7 581.5 857.6 583.4 857.6 585.4C857.5 655.1 878.1 700.6 912.8 719.5L935.6 731.9C900.9 713 880.3 667.6 880.4 597.8C880.4 595.8 880.4 593.8 880.5 591.9C880.5 591.3 880.5 590.7 880.5 590.2C880.5 588.7 880.6 587.3 880.6 585.9C880.6 585.3 880.6 584.8 880.7 584.2C880.8 582.3 880.9 580.4 881 578.5C881 578.4 881 578.4 881 578.3C881.1 576.5 881.2 574.7 881.4 572.9C881.4 572.3 881.5 571.8 881.5 571.2C881.6 569.8 881.7 568.5 881.8 567.1C881.8 566.6 881.9 566 881.9 565.5C882.1 563.7 882.3 561.9 882.5 560.1C882.5 560 882.5 559.8 882.5 559.7C882.7 558 882.9 556.4 883.1 554.8C883.2 554.3 883.2 553.8 883.3 553.2C883.5 551.9 883.7 550.6 883.9 549.3C884 548.8 884 548.3 884.1 547.8C884.4 546.1 884.7 544.4 885 542.8C885 542.6 885.1 542.5 885.1 542.3C885.4 540.8 885.7 539.3 886 537.8C886.1 537.3 886.2 536.8 886.3 536.3C886.6 535.1 886.8 533.9 887.1 532.7C887.2 532.3 887.3 531.8 887.4 531.4C887.8 529.8 888.1 528.2 888.5 526.7C888.5 526.5 888.6 526.3 888.7 526.1C889.1 524.7 889.4 523.4 889.8 522C889.9 521.5 890.1 521.1 890.2 520.6C890.5 519.5 890.9 518.3 891.2 517.2C891.3 516.8 891.4 516.4 891.6 516C892.1 514.5 892.5 513.1 893 511.6C893.1 511.4 893.1 511.2 893.2 511C893.6 509.8 894.1 508.5 894.5 507.3C894.6 506.9 894.8 506.5 894.9 506.2C895.5 504.5 896.2 502.8 896.8 501.1C896.8 501 896.9 500.9 896.9 500.8C897.5 499.2 898.2 497.6 898.9 496.1C899 495.8 899.2 495.5 899.3 495.2C900 493.6 900.7 492.1 901.5 490.6C901.6 490.3 901.8 490 902 489.7C902.8 488.1 903.5 486.6 904.4 485.1C904.4 485 904.5 484.9 904.5 484.8C905.1 483.7 905.7 482.7 906.3 481.6C906.5 481.2 906.7 480.9 906.9 480.5C907.4 479.7 907.8 478.9 908.3 478.2C908.5 477.8 908.8 477.4 909 477.1C909.5 476.3 910 475.6 910.5 474.8C910.7 474.5 910.9 474.1 911.1 473.8C911.8 472.7 912.5 471.7 913.2 470.7C913.3 470.6 913.4 470.4 913.5 470.3C914.1 469.5 914.7 468.7 915.2 467.9C915.4 467.6 915.7 467.3 915.9 466.9C916.4 466.3 916.8 465.7 917.3 465.1C917.6 464.7 917.9 464.4 918.1 464C918.5 463.5 919 462.9 919.4 462.4C919.7 462 920 461.7 920.3 461.3C920.7 460.8 921.2 460.3 921.6 459.8C921.9 459.4 922.2 459.1 922.6 458.7C923 458.2 923.4 457.8 923.8 457.3C924.1 456.9 924.5 456.6 924.8 456.2C925.2 455.8 925.6 455.3 926.1 454.9C926.4 454.6 926.8 454.2 927.1 453.9C927.5 453.5 928 453 928.4 452.6C928.7 452.3 929.1 451.9 929.4 451.6C929.9 451.2 930.3 450.7 930.8 450.3C931.1 450 931.5 449.7 931.8 449.4C932.5 448.8 933.2 448.2 933.9 447.6C934.1 447.5 934.2 447.3 934.4 447.2C935.3 446.5 936.1 445.8 937 445.1C937.2 444.9 937.5 444.7 937.7 444.5C938.3 444 939 443.5 939.6 443C939.9 442.8 940.3 442.5 940.6 442.3C941.2 441.9 941.8 441.5 942.4 441C942.7 440.8 943 440.6 943.3 440.3C944.4 439.5 945.6 438.8 946.7 438.1C947.9 437.4 949 436.7 950.2 436C950.5 435.8 950.8 435.7 951.1 435.5C952.3 434.8 953.5 434.2 954.7 433.5H954.8C956 432.9 957.2 432.3 958.4 431.7C958.7 431.6 959 431.4 959.3 431.3C960.4 430.8 961.5 430.3 962.6 429.8C962.7 429.8 962.8 429.7 962.9 429.7C964.1 429.2 965.3 428.7 966.5 428.2C966.8 428.1 967.2 428 967.5 427.8C968.5 427.4 969.5 427.1 970.6 426.7C970.8 426.6 971.1 426.5 971.3 426.4C972.5 426 973.8 425.6 975.1 425.2C975.4 425.1 975.7 425 976 424.9C977 424.6 978.1 424.3 979.1 424.1C979.4 424 979.7 423.9 980.1 423.9C981.4 423.6 982.7 423.3 984 423C984.2 423 984.4 422.9 984.7 422.9C985.8 422.7 987 422.4 988.1 422.2C988.5 422.1 988.8 422.1 989.2 422C990.5 421.8 991.9 421.5 993.3 421.4C994.5 421.2 995.8 421.1 997 420.9C997.3 420.9 997.6 420.8 997.9 420.8C999.1 420.7 1000.3 420.6 1001.5 420.5C1001.6 420.5 1001.7 420.5 1001.8 420.5C1002.9 420.4 1004 420.4 1005.1 420.3C1005.4 420.3 1005.7 420.3 1005.9 420.3C1007.1 420.3 1008.2 420.2 1009.4 420.2C1009.5 420.2 1009.7 420.2 1009.8 420.2C1010.8 420.2 1011.9 420.2 1012.9 420.2C1013.2 420.2 1013.4 420.2 1013.7 420.2C1014.8 420.2 1015.9 420.3 1017 420.4C1017.2 420.4 1017.3 420.4 1017.5 420.4C1018.5 420.5 1019.5 420.6 1020.4 420.7C1020.7 420.7 1020.9 420.7 1021.2 420.8C1022.3 420.9 1023.4 421.1 1024.4 421.2C1024.6 421.2 1024.8 421.3 1025 421.3C1025.9 421.4 1026.9 421.6 1027.8 421.8C1028 421.8 1028.3 421.9 1028.5 421.9C1029.5 422.1 1030.6 422.3 1031.6 422.6C1031.8 422.6 1032 422.7 1032.2 422.8C1032.9 423 1033.6 423.1 1034.3 423.3C1035.1 423.5 1035.8 423.7 1036.6 423.9C1037.1 424 1037.6 424.2 1038.1 424.3C1038.9 424.6 1039.7 424.8 1040.4 425.1C1040.8 425.3 1041.3 425.4 1041.7 425.6C1042.6 426 1043.6 426.3 1044.5 426.7C1044.8 426.8 1045 426.9 1045.3 427C1046.5 427.5 1047.6 428 1048.8 428.6C1049.8 429.1 1050.8 429.6 1051.8 430.1L1028.8 417.6Z" fill="#636363" stroke="#636363" stroke-width="2" stroke-miterlimit="10" stroke-linecap="round" stroke-linejoin="round"/>
<path d="M993.2 421.3C1061.2 411.7 1106.1 458.3 1105.9 565.8C1105.7 668.1 1061.1 730.7 992.599 740.3C924.599 749.9 880.099 699.7 880.299 597.5C880.499 491.3 924.8 430.9 993.2 421.3ZM993.099 689.2C1024.7 684.8 1042.2 650.8 1042.3 574.8C1042.4 498.7 1025.1 468 993.099 472.5C960.699 477.1 944 511.3 943.9 588.7C943.8 664.2 961.499 693.6 993.099 689.2Z" fill="white" stroke="#636363" stroke-width="2" stroke-miterlimit="10" stroke-linecap="round" stroke-linejoin="round"/>
<path d="M760.4 493.3L758.2 555.2L758.1 632.2L780.9 644.6L781 567.6L783.2 505.7L760.4 493.3Z" fill="#636363" stroke="#636363" stroke-width="2" stroke-miterlimit="10" stroke-linecap="round" stroke-linejoin="round"/>
<path d="M870.799 632C870.899 632 871.099 632 871.199 632.1C871.499 632.2 871.699 632.3 871.999 632.4L849.099 620C848.899 619.9 848.699 619.8 848.499 619.8H848.399C848.299 619.8 848.099 619.8 847.999 619.7C847.899 619.7 847.899 619.7 847.799 619.7C847.599 619.7 847.399 619.7 847.199 619.7L819.699 623.6L842.499 636L869.999 632C870.199 632 870.399 632 870.599 632C870.599 632 870.699 632 870.799 632Z" fill="#636363" stroke="#636363" stroke-width="2" stroke-miterlimit="10" stroke-linecap="round" stroke-linejoin="round"/>
<path d="M780.698 760L780.798 694L757.998 681.6L757.898 747.6C757.898 749 758.598 750.1 759.598 750.7L782.398 763.1C781.298 762.5 780.698 761.4 780.698 760Z" fill="#636363" stroke="#636363" stroke-width="2" stroke-miterlimit="10" stroke-linecap="round" stroke-linejoin="round"/>
<path d="M702.698 655.6L679.898 643.2L758.098 632.2L780.898 644.6L702.698 655.6Z" fill="#636363" stroke="#636363" stroke-width="2" stroke-miterlimit="10" stroke-linecap="round" stroke-linejoin="round"/>
<path d="M870 632C872 631.7 873.6 633.2 873.6 635.4L873.5 676.9C873.5 679.1 871.9 681.1 869.8 681.3L842.3 685.2L842.2 751.2C842.2 753.4 840.6 755.4 838.5 755.6L784.2 763.2C782.2 763.5 780.6 762 780.6 759.8L780.7 693.8L657.6 711.1C655.6 711.4 654 709.9 654 707.7L654.1 659.2C654.1 657 654.9 653.8 656.1 651.5L759.3 463.9C760.5 461.6 763 459.9 765 459.6L839.1 449.2C841.1 448.9 842.7 450.4 842.7 452.6L842.4 635.7L870 632ZM781 567.6L783.1 505.7L702.7 655.5L780.9 644.5L781 567.6Z" fill="white" stroke="#636363" stroke-width="2" stroke-miterlimit="10" stroke-linecap="round" stroke-linejoin="round"/>
<path d="M653.999 707.8L654.099 659.3L631.299 646.9L631.199 695.4C631.199 696.8 631.899 697.9 632.899 698.5L655.699 710.9C654.699 710.4 653.999 709.2 653.999 707.8Z" fill="#636363" stroke="#636363" stroke-width="2" stroke-miterlimit="10" stroke-linecap="round" stroke-linejoin="round"/>
<path d="M818.298 437.3C817.698 437 817.098 436.9 816.298 437L742.198 447.4C741.898 447.4 741.698 447.5 741.398 447.6C741.298 447.6 741.198 447.7 741.098 447.7C740.898 447.8 740.698 447.8 740.498 447.9H740.398C740.198 448 739.998 448.1 739.798 448.2C739.598 448.3 739.398 448.4 739.198 448.6C739.198 448.6 739.098 448.6 739.098 448.7C738.898 448.9 738.598 449 738.398 449.2L738.298 449.3C738.098 449.5 737.898 449.6 737.798 449.8C737.698 449.9 737.698 449.9 737.598 450C737.598 450.1 737.498 450.1 737.498 450.2C737.298 450.4 737.198 450.6 737.098 450.8C736.998 450.9 736.998 451 736.898 451.1C736.798 451.3 736.698 451.4 736.598 451.6C736.598 451.6 736.598 451.7 736.498 451.7L633.398 639.2C632.198 641.5 631.398 644.7 631.398 646.9L654.198 659.3C654.198 657.1 654.998 653.9 656.198 651.6L759.398 464C759.498 463.8 759.598 463.6 759.798 463.4C759.898 463.3 759.898 463.2 759.998 463.1C760.098 462.9 760.298 462.7 760.498 462.5C760.498 462.4 760.598 462.4 760.598 462.3C760.698 462.2 760.698 462.2 760.798 462.1C760.998 461.9 761.098 461.7 761.298 461.6C761.398 461.6 761.398 461.5 761.498 461.5C761.698 461.3 761.898 461.1 762.198 461C762.398 460.8 762.598 460.7 762.798 460.6C762.998 460.5 763.298 460.4 763.498 460.3C763.698 460.2 763.898 460.1 764.098 460.1C764.198 460.1 764.298 460 764.398 460C764.698 459.9 764.998 459.8 765.198 459.8L839.298 449.4C839.998 449.3 840.698 449.4 841.298 449.7L818.298 437.3Z" fill="#636363" stroke="#636363" stroke-width="2" stroke-miterlimit="10" stroke-linecap="round" stroke-linejoin="round"/>
</svg>
