<svg width="557" height="101" viewBox="0 0 557 101" fill="none" xmlns="http://www.w3.org/2000/svg">
<g clip-path="url(#clip0_41_116)">
<path d="M460.339 97.692H435.008C433.243 97.692 432.382 95.5423 433.654 94.3197L472.996 56.495C476.785 52.8852 476.826 47.0504 473.089 43.3942C473.089 43.3942 445.415 18.1778 433.307 6.8964C432.011 5.6912 432.867 3.51836 434.632 3.51836H460.368C460.86 3.51836 461.328 3.70377 461.687 4.03405L490.559 30.7454C501.29 41.4242 501.232 58.2738 490.432 68.8889L461.693 97.1357C461.328 97.495 460.837 97.692 460.328 97.692" fill="#005CFF"/>
<path d="M555.504 97.692H528.449C527.992 97.692 527.552 97.5066 527.228 97.1821C527.228 97.1821 505.842 77.2963 499.005 70.8531C497.882 69.7928 497.761 68.0487 498.738 66.8551C502.244 62.5789 504.876 57.0512 504.876 49.8258C504.876 43.1335 502.782 38.0751 499.959 34.2799C499.086 33.1095 499.248 31.4639 500.289 30.4441L527.228 4.08619C527.558 3.72695 528.021 3.51836 528.507 3.51836H555.533C556.858 3.51836 557.5 5.13495 556.54 6.05044L515.977 44.64C512.182 48.2556 512.136 54.0904 515.885 57.7581C515.885 57.7581 544.947 84.3305 556.517 95.1599C557.488 96.0696 556.841 97.6978 555.51 97.6978" fill="#005CFF"/>
<path d="M92.6602 3.68639L19.5872 3.69798C18.5112 3.69798 17.6435 4.57291 17.6435 5.64484V23.5954C17.6435 24.6731 18.517 25.5422 19.5872 25.5422H93.2155C100.151 25.774 106.063 30.8671 107.944 37.3798C108.262 38.4865 107.434 39.599 106.283 39.599H29.3345C13.1545 39.6048 0 52.6592 0 68.7092C0 84.7593 13.1545 97.8079 29.3345 97.8079H92.666L94.4072 97.7963L94.8584 97.7557V97.7383C104.559 97.1937 113.601 93.0566 120.369 86.0514C127.259 78.9245 131.048 69.5726 131.048 59.7282V41.7777C131.048 20.7794 113.832 3.69798 92.666 3.69798M92.6602 75.952L90.9306 75.9636H29.3345C25.5455 75.9636 22.4738 72.9101 22.4738 69.1612C22.4738 65.4123 25.5513 61.9068 29.3345 61.9068H106.283C107.44 61.9068 108.262 63.0193 107.944 64.1318C106.017 70.8473 99.8622 75.952 92.6602 75.952Z" fill="#005CFF"/>
<path d="M404.644 5.66802C399.918 1.37449 394.11 -0.444894 387.775 1.28758C376.559 4.36432 372.382 15.8427 367.61 25.3047C362.149 36.1457 356.688 46.9867 351.227 57.8277C348.555 63.141 345.871 68.4543 343.198 73.7676C343.169 73.8255 343.082 73.9994 342.822 73.9994C342.562 73.9994 342.475 73.8255 342.446 73.7676C338.773 66.4785 335.099 59.1835 331.432 51.8944C327.255 42.473 322.361 33.3992 317.595 24.2675C313.707 16.8161 310.289 7.56273 302.734 3.02006C296.498 -0.728811 288.052 -0.172565 282.516 4.61926C277.929 8.5941 276.685 14.0639 276.685 19.8929V95.7915C276.685 96.8692 277.558 97.7383 278.629 97.7383H296.66C297.736 97.7383 298.603 96.8634 298.603 95.7915V43.29C298.603 41.4532 301.091 40.8853 301.883 42.5425L324.027 88.7225C327.527 96.0232 334.729 100.566 342.816 100.566C350.903 100.566 358.105 96.029 361.605 88.7225L383.749 42.5425C384.542 40.8853 387.029 41.4532 387.029 43.29V95.7915C387.029 96.8692 387.903 97.7383 388.973 97.7383H407.004C408.08 97.7383 408.948 96.8634 408.948 95.7915V19.8986C408.948 14.3072 408.577 9.24885 404.632 5.66802" fill="#005CFF"/>
<path d="M262.547 76.1664H191.944C190.22 76.1664 189.561 73.9125 191.018 72.9796L262.958 27.0371C268.008 23.9894 270.229 18.4443 268.621 12.905C266.995 7.30199 262.055 3.68639 256.045 3.68639L145.099 3.78489C144.023 3.78489 143.155 4.65982 143.155 5.73176V23.4042C143.155 24.4819 144.029 25.351 145.099 25.351H216.969C218.693 25.351 219.352 27.6108 217.894 28.5378L144.162 75.5638C139.355 78.4667 137.238 83.7453 138.77 89.018C140.321 94.3487 145.018 97.7963 150.745 97.7963H262.547C263.623 97.7963 264.491 96.9213 264.491 95.8494V78.1075C264.491 77.0297 263.617 76.1606 262.547 76.1606" fill="#005CFF"/>
</g>
<defs>
<clipPath id="clip0_41_116">
<rect width="557" height="101" fill="white"/>
</clipPath>
</defs>
</svg>
